HIERARCHY
ROOT Hips
{
	OFFSET 0.000000 0.000000 0.000000
	CHANNELS 6 Xposition Yposition Zposition Zrotation Yrotation Xrotation 
	JOINT LeftUpLeg_virtual
	{
		OFFSET 0.000000 0.000000 0.000000
		CHANNELS 3 Zrotation Yrotation Xrotation
		JOINT LeftUpLeg
		{
			OFFSET 8.479694 -4.795517 -0.379053
			CHANNELS 3 Zrotation Yrotation Xrotation
			JOINT LeftLeg
			{
				OFFSET 0.485052 -32.551468 0.112863
				CHANNELS 3 Zrotation Yrotation Xrotation
				JOINT LeftFoot
				{
					OFFSET 0.438033 -32.635670 -3.012641
					CHANNELS 3 Zrotation Yrotation Xrotation
					JOINT LeftToeBase
					{
						OFFSET 0.970169 -13.225353 11.864223
						CHANNELS 3 Zrotation Yrotation Xrotation
						End Site
						{
							OFFSET 0.000000 0.000000 0.000000
						}
					}
				}
			}
		}
	}
	JOINT RightUpLeg_virtual
	{
		OFFSET 0.000000 0.000000 0.000000
		CHANNELS 3 Zrotation Yrotation Xrotation
		JOINT RightUpLeg
		{
			OFFSET -8.479694 -4.795517 -0.379053
			CHANNELS 3 Zrotation Yrotation Xrotation
			JOINT RightLeg
			{
				OFFSET -0.484100 -32.551483 0.112903
				CHANNELS 3 Zrotation Yrotation Xrotation
				JOINT RightFoot
				{
					OFFSET -0.438985 -32.635651 -3.012681
					CHANNELS 3 Zrotation Yrotation Xrotation
					JOINT RightToeBase
					{
						OFFSET -0.970169 -13.225354 11.864223
						CHANNELS 3 Zrotation Yrotation Xrotation
						End Site
						{
							OFFSET 0.000000 0.000000 0.000000
						}
					}
				}
			}
		}
	}
	JOINT Spine_virtual
	{
		OFFSET 0.000000 0.000000 0.000000
		CHANNELS 3 Zrotation Yrotation Xrotation
		JOINT Spine
		{
			OFFSET 0.000000 7.722015 1.166203
			CHANNELS 3 Zrotation Yrotation Xrotation
			JOINT Spine1
			{
				OFFSET 0.000000 12.024086 0.248766
				CHANNELS 3 Zrotation Yrotation Xrotation
				JOINT Spine2
				{
					OFFSET -0.000000 11.503036 -0.491240
					CHANNELS 3 Zrotation Yrotation Xrotation
					JOINT Neck_virtual
					{
						OFFSET 0.000000 0.000000 0.000000
						CHANNELS 3 Zrotation Yrotation Xrotation
						JOINT Neck
						{
							OFFSET 0.000000 18.430687 -3.123054
							CHANNELS 3 Zrotation Yrotation Xrotation
							JOINT Head
							{
								OFFSET -0.000000 9.051071 1.034021
								CHANNELS 3 Zrotation Yrotation Xrotation
								End Site
								{
									OFFSET 0.000000 0.000000 0.000000
								}
							}
						}
					}
					JOINT LeftShoulder_virtual
					{
						OFFSET 0.000000 0.000000 0.000000
						CHANNELS 3 Zrotation Yrotation Xrotation
						JOINT LeftShoulder
						{
							OFFSET 6.197824 13.665230 -4.064723
							CHANNELS 3 Zrotation Yrotation Xrotation
							JOINT LeftArm
							{
								OFFSET 7.778132 -0.187073 -1.709282
								CHANNELS 3 Zrotation Yrotation Xrotation
								JOINT LeftForeArm
								{
									OFFSET 21.954697 0.000000 -2.041093
									CHANNELS 3 Zrotation Yrotation Xrotation
									JOINT LeftHand
									{
										OFFSET 22.992908 0.000000 -0.870901
										CHANNELS 3 Zrotation Yrotation Xrotation
										End Site
										{
											OFFSET 0.000000 0.000000 0.000000
										}
									}
								}
							}
						}
					}
					JOINT RightShoulder_virtual
					{
						OFFSET 0.000000 0.000000 0.000000
						CHANNELS 3 Zrotation Yrotation Xrotation
						JOINT RightShoulder
						{
							OFFSET -6.197824 13.665230 -4.064723
							CHANNELS 3 Zrotation Yrotation Xrotation
							JOINT RightArm
							{
								OFFSET -7.778132 -0.187073 -1.709282
								CHANNELS 3 Zrotation Yrotation Xrotation
								JOINT RightForeArm
								{
									OFFSET -21.954697 0.000000 -2.041093
									CHANNELS 3 Zrotation Yrotation Xrotation
									JOINT RightHand
									{
										OFFSET -22.992908 0.000000 -0.870901
										CHANNELS 3 Zrotation Yrotation Xrotation
										End Site
										{
											OFFSET 0.000000 0.000000 0.000000
										}
									}
								}
							}
						}
					}
				}
			}
		}
	}
}
MOTION
Frames: 4
Frame Time: 0.033333
-1.617674 81.697433 33.144802 -179.716443 -11.524957 179.641816 -7.518940 -6.787705 15.540776 6.141289 1.208711 -24.710916 1.364385 6.703315 24.034353 0.405917 -7.796414 -10.616271 0.000000 0.000000 0.000000 -1.854680 -10.273888 14.821946 -1.527214 -10.237259 -22.560663 -2.157266 5.996228 21.696373 9.761190 7.310209 -5.534872 0.000000 0.000000 0.000000 -3.943490 -6.553488 6.298408 -5.874118 6.769424 -7.888798 0.177247 -0.960324 10.254993 -0.042617 -0.121891 -0.059666 0.342082 -0.146850 8.307513 9.807100 -3.711198 -4.817107 0.000000 0.000000 0.000000 1.271641 0.198137 5.137024 0.251170 -7.927677 4.630334 -49.410251 -22.959828 4.567622 141.873616 -86.188743 -113.257124 0.000000 0.000000 0.000000 -2.347067 1.820769 3.804890 17.919056 18.983450 14.821154 -11.106827 45.022585 -19.555240 -12.462865 79.267986 -10.372319 0.000000 0.000000 0.000000 
-1.606484 81.726868 33.082771 -179.727590 -11.825991 179.634440 -7.509171 -7.057184 15.731751 6.162417 1.065640 -24.785218 1.359939 6.717879 23.911888 0.422461 -7.857462 -10.438374 0.000000 0.000000 0.000000 -1.831727 -10.610999 14.874853 -1.519971 -10.788751 -22.454129 -2.093383 6.142854 21.547920 9.798032 7.387925 -5.580383 0.000000 0.000000 0.000000 -4.011055 -6.888048 6.376902 -5.814875 6.721952 -7.813321 0.118621 -0.848577 10.216520 -0.108632 -0.037919 -0.093158 0.360498 -0.013181 8.284492 9.674077 -3.720499 -4.893550 0.000000 0.000000 0.000000 1.275410 0.277089 5.083704 0.257933 -8.225541 4.883455 -49.862505 -24.112335 6.950281 133.670600 -86.436905 -104.895593 0.000000 0.000000 0.000000 -2.297672 1.920586 3.882433 17.423562 19.076701 14.934159 -11.626180 42.402600 -21.694098 -10.438824 74.303579 -8.193941 0.000000 0.000000 0.000000 
-1.591062 81.745209 32.954914 -179.753449 -12.098756 179.631489 -7.506651 -7.366812 16.002945 6.220541 0.803176 -24.922228 1.380125 6.813969 23.884241 0.512494 -7.933040 -10.334991 0.000000 0.000000 0.000000 -1.819147 -10.903090 14.971606 -1.440308 -11.630607 -22.325180 -2.008635 6.402729 21.449104 9.809594 7.501344 -5.731855 0.000000 0.000000 0.000000 -4.089695 -7.069898 6.502126 -5.758062 6.935562 -7.816899 0.038353 -0.811622 10.165305 -0.072378 -0.064121 -0.097850 0.225941 0.046480 8.189890 9.357985 -3.720760 -5.064692 0.000000 0.000000 0.000000 1.206826 0.246489 5.030959 0.244722 -8.400934 4.977804 -50.205446 -25.047070 9.169532 131.184342 -86.676221 -102.217257 0.000000 0.000000 0.000000 -2.357476 1.921288 3.971651 16.643011 19.363306 15.143530 -10.374813 39.361554 -21.036033 -9.279473 69.301408 -6.893313 0.000000 0.000000 0.000000 
-1.574584 81.748566 32.783314 -179.751564 -12.551752 179.632541 -7.504770 -7.695311 16.262349 6.336348 0.439834 -25.094130 1.410144 6.893957 23.983420 0.647232 -8.025967 -10.322760 0.000000 0.000000 0.000000 -1.819581 -11.236736 15.074026 -1.357984 -12.157408 -22.196865 -1.935549 6.548652 21.414998 9.721201 7.575376 -5.977655 0.000000 0.000000 0.000000 -4.134711 -7.557999 6.617534 -5.761782 6.995020 -7.870547 -0.012990 -0.736891 10.138454 -0.021389 -0.055872 -0.082009 0.096774 -0.003227 8.138304 9.050239 -3.639945 -5.198962 0.000000 0.000000 0.000000 0.976477 0.457865 5.029009 0.088005 -8.307034 5.031907 -50.548884 -25.903974 11.291612 130.983590 -86.759003 -101.798867 0.000000 0.000000 0.000000 -2.501062 2.060901 4.086895 15.759840 19.805156 15.423110 -7.837777 36.205368 -18.073463 -8.571144 65.083192 -6.104324 0.000000 0.000000 0.000000 
